<?xml version="1.0" encoding="UTF-8" standalone="no"?>
<!-- Created with Inkscape (http://www.inkscape.org/) -->

<svg
   xmlns:dc="http://purl.org/dc/elements/1.1/"
   xmlns:cc="http://creativecommons.org/ns#"
   xmlns:rdf="http://www.w3.org/1999/02/22-rdf-syntax-ns#"
   xmlns:svg="http://www.w3.org/2000/svg"
   xmlns="http://www.w3.org/2000/svg"
   xmlns:sodipodi="http://sodipodi.sourceforge.net/DTD/sodipodi-0.dtd"
   xmlns:inkscape="http://www.inkscape.org/namespaces/inkscape"
   id="svg4337"
   version="1.1"
   inkscape:version="0.91 r13725"
   width="1173.9985"
   height="1297.8284"
   viewBox="0 0 1173.9985 1297.8284"
   sodipodi:docname="FloralDesign21.svg">
  <metadata
     id="metadata4343">
    <rdf:RDF>
      <cc:Work
         rdf:about="">
        <dc:format>image/svg+xml</dc:format>
        <dc:type
           rdf:resource="http://purl.org/dc/dcmitype/StillImage" />
        <dc:title></dc:title>
      </cc:Work>
    </rdf:RDF>
  </metadata>
  <defs
     id="defs4341">
    <filter
       inkscape:menu-tooltip="Bright metallic effect for any color"
       inkscape:menu="Bevels"
       inkscape:label="Bright Metal"
       style="color-interpolation-filters:sRGB;"
       id="filter8924">
      <feGaussianBlur
         result="result6"
         stdDeviation="8"
         in="SourceGraphic"
         id="feGaussianBlur8926" />
      <feComposite
         in2="SourceGraphic"
         in="result6"
         operator="xor"
         result="result10"
         id="feComposite8928" />
      <feGaussianBlur
         result="result2"
         stdDeviation="8"
         id="feGaussianBlur8930" />
      <feComposite
         in2="SourceGraphic"
         operator="atop"
         in="result10"
         result="result91"
         id="feComposite8932" />
      <feComposite
         result="result4"
         in="result2"
         operator="xor"
         in2="result91"
         id="feComposite8934" />
      <feGaussianBlur
         in="result4"
         result="result3"
         stdDeviation="4"
         id="feGaussianBlur8936" />
      <feSpecularLighting
         result="result5"
         specularExponent="5"
         specularConstant="1.1"
         surfaceScale="18"
         id="feSpecularLighting8938">
        <feDistantLight
           azimuth="235"
           elevation="55"
           id="feDistantLight8940" />
      </feSpecularLighting>
      <feComposite
         in="result3"
         k3="1.1"
         k2="0.5"
         operator="arithmetic"
         result="result7"
         in2="result5"
         k1="0.5"
         id="feComposite8942" />
      <feComposite
         in="result7"
         operator="atop"
         in2="SourceGraphic"
         result="result8"
         id="feComposite8944" />
    </filter>
    <filter
       inkscape:menu-tooltip="Bright metallic effect for any color"
       inkscape:menu="Bevels"
       inkscape:label="Bright Metal"
       style="color-interpolation-filters:sRGB;"
       id="filter9036">
      <feGaussianBlur
         result="result6"
         stdDeviation="8"
         in="SourceGraphic"
         id="feGaussianBlur9038" />
      <feComposite
         in2="SourceGraphic"
         in="result6"
         operator="xor"
         result="result10"
         id="feComposite9040" />
      <feGaussianBlur
         result="result2"
         stdDeviation="8"
         id="feGaussianBlur9042" />
      <feComposite
         in2="SourceGraphic"
         operator="atop"
         in="result10"
         result="result91"
         id="feComposite9044" />
      <feComposite
         result="result4"
         in="result2"
         operator="xor"
         in2="result91"
         id="feComposite9046" />
      <feGaussianBlur
         in="result4"
         result="result3"
         stdDeviation="4"
         id="feGaussianBlur9048" />
      <feSpecularLighting
         result="result5"
         specularExponent="5"
         specularConstant="1.1"
         surfaceScale="18"
         id="feSpecularLighting9050">
        <feDistantLight
           azimuth="235"
           elevation="55"
           id="feDistantLight9052" />
      </feSpecularLighting>
      <feComposite
         in="result3"
         k3="1.1"
         k2="0.5"
         operator="arithmetic"
         result="result7"
         in2="result5"
         k1="0.5"
         id="feComposite9054" />
      <feComposite
         in="result7"
         operator="atop"
         in2="SourceGraphic"
         result="result8"
         id="feComposite9056" />
    </filter>
    <filter
       inkscape:menu-tooltip="Bright metallic effect for any color"
       inkscape:menu="Bevels"
       inkscape:label="Blur"
       style="color-interpolation-filters:sRGB;"
       id="filter9073"
       height="1"
       width="1"
       y="0"
       x="0">
      <feGaussianBlur
         result="result6"
         stdDeviation="8"
         in="SourceGraphic"
         id="feGaussianBlur9075" />
      <feComposite
         in2="SourceGraphic"
         in="result6"
         operator="xor"
         result="result10"
         id="feComposite9077" />
      <feGaussianBlur
         result="result2"
         stdDeviation="8"
         id="feGaussianBlur9079" />
      <feComposite
         in2="SourceGraphic"
         operator="atop"
         in="result10"
         result="result91"
         id="feComposite9081" />
      <feComposite
         result="result4"
         in="result2"
         operator="xor"
         in2="result91"
         id="feComposite9083" />
      <feGaussianBlur
         in="result4"
         result="result3"
         stdDeviation="4"
         id="feGaussianBlur9085" />
      <feSpecularLighting
         result="result5"
         specularExponent="5"
         specularConstant="1.1"
         surfaceScale="18"
         id="feSpecularLighting9087">
        <feDistantLight
           azimuth="235"
           elevation="55"
           id="feDistantLight9089" />
      </feSpecularLighting>
      <feComposite
         in="result3"
         k3="1.1"
         k2="0.5"
         operator="arithmetic"
         result="result7"
         in2="result5"
         k1="0.5"
         id="feComposite9091" />
      <feComposite
         in="result7"
         operator="atop"
         in2="SourceGraphic"
         result="fbSourceGraphic"
         id="feComposite9093" />
      <feColorMatrix
         result="fbSourceGraphicAlpha"
         in="fbSourceGraphic"
         values="0 0 0 -1 0 0 0 0 -1 0 0 0 0 -1 0 0 0 0 1 0"
         id="feColorMatrix9191" />
      <feGaussianBlur
         id="feGaussianBlur9193"
         stdDeviation="2 2"
         result="blur"
         in="fbSourceGraphic" />
      <feColorMatrix
         id="feColorMatrix9195"
         values="1 0 0 0 0 0 1 0 0 0 0 0 1 0 0 0 0 0 50 0 "
         result="colormatrix" />
      <feComposite
         id="feComposite9197"
         in2="fbSourceGraphic"
         in="colormatrix"
         operator="in" />
    </filter>
  </defs>
  <sodipodi:namedview
     pagecolor="#ffffff"
     bordercolor="#666666"
     borderopacity="1"
     objecttolerance="10"
     gridtolerance="10"
     guidetolerance="10"
     inkscape:pageopacity="0"
     inkscape:pageshadow="2"
     inkscape:window-width="1600"
     inkscape:window-height="837"
     id="namedview4339"
     showgrid="false"
     inkscape:zoom="0.51624737"
     inkscape:cx="587.00004"
     inkscape:cy="648.91469"
     inkscape:window-x="-8"
     inkscape:window-y="-8"
     inkscape:window-maximized="1"
     inkscape:current-layer="svg4337"
     fit-margin-top="0"
     fit-margin-left="0"
     fit-margin-right="0"
     fit-margin-bottom="0" />
  <path
     style="fill:#000000;filter:url(#filter9073)"
     d="M 554.31445 0 C 546.90392 -0.044580417 525.30188 34.634306 517.69531 59.042969 C 512.74698 74.921697 509.84527 77.90456 500.82227 76.367188 C 494.8288 75.346003 482.55359 67.431652 473.54688 58.785156 C 453.13854 39.193094 448.81682 42.816502 441.39258 85.767578 C 433.05783 133.9862 448.87529 159.50877 505.99805 190.01172 C 514.37924 194.4872 514.31564 194.9584 504.25781 202.86914 C 491.91469 212.57731 490.64585 210.92598 523.92383 228.45117 C 544.95677 239.52772 550.12316 244.5515 548.7832 252.64453 C 545.85027 270.35842 561.06109 314.62664 579.8125 342.93945 C 589.74679 357.93933 594.57109 368.02898 590.53125 365.35156 C 576.92788 356.3359 514.14703 344.13767 495.6875 346.92773 C 460.92236 352.18245 424.59923 391.27208 417.78906 430.75781 C 414.8424 447.84263 417.50558 448.08849 436.00586 432.42578 C 450.6494 420.02829 475.97255 409.22599 486.28125 410.98242 C 489.10392 411.46335 490.73817 415.83782 489.9082 420.70898 C 488.04745 431.6299 502.98435 455.37817 509.94141 452.56055 C 512.73652 451.42849 515.92097 445.20686 517.02344 438.73633 C 519.86833 422.03928 551.50669 398.13819 573.79297 395.85352 C 606.68576 392.4815 617.50298 396.72835 630.70117 418.16992 C 658.67776 463.62011 664.17532 511.83023 651.94922 543.82812 C 645.39822 538.36107 635.85047 535.46976 627.27148 538.64844 C 608.2949 545.67962 599.70704 559.74939 601.53906 580.6543 C 597.98496 580.63507 594.28878 580.32383 590.43945 579.66797 C 575.2927 577.08722 569.13059 574.63246 560.9707 563.07812 C 557.32513 548.31554 550.3936 533.72627 540.13477 520.0332 C 514.43109 485.72495 474.92818 469.29512 411.94531 466.7207 C 386.40448 465.67673 377.63973 463.1103 371.63477 454.91797 C 354.99225 432.21324 363.98625 394.11985 391.73242 369.79102 C 399.60056 362.89185 404.7715 356.20182 403.23047 354.92383 C 401.68949 353.64587 389.21684 352.35154 375.50977 352.04297 C 361.80271 351.73439 350.41182 349.59214 350.19727 347.29297 C 349.98271 344.99379 356.12757 333.80517 363.85938 322.41992 C 371.59124 311.03468 376.33235 300.3997 374.39258 298.79102 C 372.45288 297.18239 362.71431 299.97719 352.74609 305 C 342.37202 310.22736 325.62148 324.78774 313.57227 339.04297 C 295.32723 360.62792 292.40103 366.96883 291.58984 386.64258 C 290.48073 413.5418 303.602 435.7743 333.08398 456.92383 C 353.0597 471.25383 353.31203 471.75527 341.24805 473.64062 C 317.96548 477.2793 257.89825 471.76891 244.28125 464.74609 C 232.34626 458.59078 230.4062 453.94045 228.21289 426.1582 C 225.41736 390.74689 221.22957 383.8663 210.41211 396.91016 C 197.73778 412.19308 193.75642 407.72442 191.45312 375.64453 C 188.95937 340.91301 182.43889 326.39974 161.72852 309.43164 C 145.55974 296.18451 110.82788 285.40485 94.349609 288.52344 C 81.937048 290.87255 81.963473 293.13841 94.791016 325.96484 C 102.17647 344.86471 96.205702 355.29044 81.425781 349.30078 C 68.722401 344.15265 13.751763 346.56224 8.8769531 352.48047 C 4.3263366 358.00911 23.89351 394.90795 41.503906 413.99805 C 52.781121 426.22279 53.91322 430.22602 48.070312 437.27148 C 44.189212 441.95138 31.198472 448.62476 19.207031 452.10156 C -7.9643587 459.97966 -6.9865526 465.53433 26.498047 493.43945 C 64.089229 524.76687 94.098459 523.82961 149.07617 489.61133 C 157.14265 484.59075 157.51981 484.88313 159.3418 497.54883 C 161.57776 513.09238 159.51382 513.36558 191.33008 493.30859 C 211.43912 480.63182 218.37215 478.66804 224.71094 483.875 C 238.58516 495.27194 284.52851 504.23318 318.42383 502.15039 C 336.38124 501.04698 347.53199 501.91433 343.19336 504.07422 C 328.58388 511.34725 286.62796 559.61854 279.81445 577 C 266.9826 609.73485 282.67427 660.7363 313.46484 686.37695 C 326.7874 697.47124 328.33175 695.28665 324.01758 671.43359 C 320.60281 652.55316 323.91048 625.22124 330.58594 617.17188 C 332.41378 614.96783 337.0187 615.74213 340.82227 618.89648 C 349.34969 625.96839 377.38347 624.9045 378.42188 617.4707 C 378.83903 614.48403 375.04461 608.61582 369.99219 604.42578 C 356.95458 593.61351 352.07372 554.26312 361.23828 533.82031 C 374.76443 503.64829 383.85149 496.40254 409.01953 495.69336 C 462.36865 494.19003 506.86877 513.53613 528.4668 540.12305 C 520.4568 543.06291 513.17924 549.88545 511.64258 558.9043 C 508.24351 578.85387 516.13261 593.3255 535.15234 602.19141 C 533.3586 605.25984 531.24274 608.30476 528.75 611.31055 C 518.94111 623.13827 513.73445 627.24784 499.64648 628.53711 C 485.0394 624.31339 468.94039 623.02276 451.95312 625.06055 C 409.38948 630.16647 375.40845 656.16236 341.6875 709.41992 C 328.01298 731.01695 321.40975 737.32345 311.3125 738.42773 C 283.32836 741.48821 254.83497 714.65228 247.63867 678.45898 C 245.59788 668.19538 242.38705 660.37083 240.50977 661.06641 C 238.63254 661.76195 231.27701 671.91839 224.15625 683.63477 C 217.03548 695.35115 209.48514 704.14346 207.38672 703.17969 C 205.2883 702.21591 198.6698 691.30068 192.67578 678.91211 C 186.68181 666.5235 179.84352 657.09906 177.48047 657.97461 C 175.11752 658.85012 172.6694 668.68399 172.03516 679.82812 C 171.37516 691.42602 175.60891 713.21091 181.92969 730.77344 C 191.50029 757.36658 195.5278 763.07195 212.16016 773.61133 C 234.90101 788.02146 260.71444 787.77379 293.77148 772.81641 C 316.16947 762.68194 316.73126 762.71313 312.33203 774.10352 C 303.84192 796.08614 269.03691 845.35155 256.14648 853.63281 C 244.84833 860.89116 239.85016 860.24558 214.69336 848.25391 C 182.6285 832.96925 174.5753 833.15675 180.46289 849.04688 C 187.36111 867.66463 181.50201 868.87726 152.56836 854.83203 C 121.24311 839.62592 105.41326 838.01708 80.363281 847.46875 C 60.806546 854.84776 34.104759 879.53533 28.566406 895.36523 C 24.39452 907.28938 26.370602 908.40085 61.212891 913.70508 C 81.27339 916.75902 87.31545 927.14231 74.738281 936.94727 C 63.928183 945.37465 38.530814 994.18637 41.21875 1001.3672 C 43.731387 1008.0725 85.470884 1009.5751 110.80859 1003.8691 C 127.03413 1000.2151 131.066 1001.2356 134.24609 1009.8184 C 136.35847 1015.5195 135.64293 1030.1072 132.6582 1042.2305 C 125.89515 1069.7006 131.19466 1071.6319 172.10352 1056.5859 C 218.02945 1039.6948 232.22319 1013.2369 230.07812 948.51562 C 229.76341 939.01957 230.20417 938.8388 242.08398 943.59375 C 256.66307 949.42912 255.86798 951.35367 254.40625 913.77148 C 253.48236 890.01816 255.24898 883.03061 262.92773 880.14453 C 279.73488 873.82758 310.46742 838.52256 325.61133 808.12695 C 333.63447 792.02368 339.95896 782.79941 339.66016 787.63672 C 338.65406 803.92541 359.48092 864.39494 371.12695 878.98633 C 393.06024 906.46647 445.07505 918.37634 482.67578 904.53125 C 498.945 898.54072 497.82616 896.11222 475.01172 887.92188 C 456.9534 881.43894 434.93596 864.90933 431.30273 855.10352 C 430.30789 852.41855 433.28053 848.81642 437.91406 847.09961 C 448.30223 843.2506 461.39913 818.44235 455.48047 813.82617 C 453.10252 811.97156 446.12168 812.32302 439.9668 814.60352 C 424.08429 820.48829 387.56507 805.03901 374.44336 786.88086 C 355.0767 760.08087 353.34656 748.5902 365.31641 726.43945 C 390.68917 679.48584 429.69349 650.61975 463.51758 645.20898 C 462.05836 653.61592 464.3287 663.32957 471.37109 669.16992 C 486.94835 682.08836 503.42537 682.49163 520.61328 670.45312 C 522.37364 673.54063 523.95195 676.89712 525.30859 680.55859 C 530.64717 694.96698 531.60291 701.53022 525.67578 714.375 C 514.7141 724.91335 505.54735 738.21079 498.81836 753.94141 C 481.95839 793.35557 487.48026 835.7813 516.74219 891.61328 C 528.6085 914.25428 530.76807 923.12527 526.67578 932.42188 C 515.33416 958.18709 477.84872 969.4465 442.90625 957.58203 C 432.99732 954.21761 424.61556 953.08502 424.2793 955.05859 C 423.94304 957.03209 429.06018 968.48091 435.64648 980.50586 C 442.23278 992.53082 446.07332 1003.4654 444.18945 1004.8008 C 442.30558 1006.1362 429.54223 1006.4097 415.81641 1005.4062 C 402.09058 1004.403 390.50921 1005.6134 390.08594 1008.0977 C 389.66268 1010.5818 396.95508 1017.6189 406.28906 1023.7402 C 416.00312 1030.1107 436.98547 1037.3372 455.35547 1040.6445 C 483.1711 1045.6527 490.12677 1045.0171 507.57031 1035.8828 C 531.42028 1023.3936 544.11245 1000.9135 547.6875 964.80664 C 550.10979 940.34218 550.41923 939.8719 558.08398 949.37695 C 572.87643 967.72089 598.13865 1022.4967 598.86523 1037.8008 C 599.50207 1051.2144 596.442 1055.2192 573.47852 1071.0098 C 544.20919 1091.1365 540.34572 1098.2044 557.05078 1101.0508 C 576.62332 1104.3856 574.74364 1110.067 548.11328 1128.1016 C 519.28178 1147.627 509.97438 1160.5314 505.63477 1186.9512 C 502.24681 1207.5772 510.27689 1243.0445 521.2168 1255.7559 C 529.45748 1265.3309 531.40714 1264.1765 553.42188 1236.6543 C 566.09691 1220.8085 578.10975 1220.7659 580.3125 1236.5605 C 582.20579 1250.1361 611.77907 1296.5363 619.3418 1297.7988 C 626.40507 1298.9755 648.57739 1263.5813 656.30469 1238.7852 C 661.25302 1222.9065 664.15278 1219.9235 673.17578 1221.4609 C 679.16925 1222.4821 691.44451 1230.3967 700.45117 1239.043 C 720.85953 1258.6352 725.18118 1255.0116 732.60547 1212.0605 C 740.94024 1163.8419 725.12276 1138.3194 668 1107.8164 C 659.61881 1103.3409 659.68243 1102.8698 669.74023 1094.959 C 682.08336 1085.2508 683.35417 1086.9022 650.07617 1069.377 C 629.04325 1058.3005 623.87486 1053.2766 625.21484 1045.1836 C 628.14776 1027.4696 612.93892 983.20148 594.1875 954.88867 C 584.25323 939.88879 579.42697 929.79914 583.4668 932.47656 C 597.07016 941.49221 659.85296 953.69045 678.3125 950.90039 C 713.07763 945.64567 749.39882 906.55604 756.20898 867.07031 C 759.15564 849.98549 756.49247 849.73964 737.99219 865.40234 C 723.34865 877.79984 698.0255 888.60213 687.7168 886.8457 C 684.89413 886.36477 683.26184 881.99031 684.0918 877.11914 C 685.95255 866.19822 671.0137 842.44996 664.05664 845.26758 C 661.26153 846.39964 658.07708 852.62126 656.97461 859.0918 C 654.12971 875.78884 622.49136 899.68994 600.20508 901.97461 C 567.31227 905.34663 556.49508 901.10173 543.29688 879.66016 C 515.32038 834.21011 509.82287 785.9979 522.04883 754 C 528.59983 759.46705 538.14758 762.35836 546.72656 759.17969 C 565.70364 752.14832 574.29159 738.07963 572.45898 717.17383 C 576.01345 717.19299 579.70883 717.50422 583.55859 718.16016 C 598.70534 720.74091 604.86746 723.19567 613.02734 734.75 C 616.67291 749.51258 623.60641 764.10186 633.86523 777.79492 C 659.56891 812.10317 699.07181 828.53301 762.05469 831.10742 C 787.59553 832.15139 796.35832 834.71782 802.36328 842.91016 C 819.0058 865.61489 810.01374 903.70828 782.26758 928.03711 C 774.39943 934.93629 769.22655 941.62827 770.76758 942.90625 C 772.30855 944.18421 784.78317 945.4766 798.49023 945.78516 C 812.1973 946.09375 823.58627 948.23598 823.80078 950.53516 C 824.01533 952.83434 817.87243 964.02295 810.14062 975.4082 C 802.40875 986.79347 797.6657 997.4285 799.60547 999.03711 C 801.54517 1000.6459 811.28571 997.85091 821.25391 992.82812 C 831.62796 987.60074 848.37656 973.04038 860.42578 958.78516 C 878.67081 937.20022 881.597 930.85928 882.4082 911.18555 C 883.51729 884.28632 870.39604 862.05579 840.91406 840.90625 C 820.93835 826.57626 820.686 826.07285 832.75 824.1875 C 856.03254 820.54883 916.09979 826.05922 929.7168 833.08203 C 941.65179 839.23734 943.59183 843.8896 945.78516 871.67188 C 948.58069 907.08319 952.77035 913.9618 963.58789 900.91797 C 976.2622 885.63506 980.24173 890.10374 982.54492 922.18359 C 985.0387 956.91512 991.56108 971.42833 1012.2715 988.39648 C 1028.4402 1001.6435 1063.1701 1012.4234 1079.6484 1009.3047 C 1092.061 1006.9556 1092.0346 1004.6897 1079.207 971.86328 C 1071.8217 952.96347 1077.7924 942.53767 1092.5723 948.52734 C 1105.2758 953.6755 1160.2482 951.26593 1165.123 945.34766 C 1169.6736 939.81903 1150.1065 902.9202 1132.4961 883.83008 C 1121.2189 871.60538 1120.0848 867.60213 1125.9277 860.55664 C 1129.8088 855.87675 1142.8017 849.20336 1154.793 845.72656 C 1181.9645 837.84846 1180.9866 832.29385 1147.502 804.38867 C 1109.9108 773.06126 1079.8996 773.99855 1024.9219 808.2168 C 1016.8554 813.2374 1016.4783 812.94499 1014.6562 800.2793 C 1012.4204 784.73575 1014.4842 784.46256 982.66797 804.51953 C 962.55898 817.19633 955.62585 819.16008 949.28711 813.95312 C 935.41284 802.55617 889.4715 793.59493 855.57617 795.67773 C 837.61875 796.78112 826.46801 795.9138 830.80664 793.75391 C 845.41611 786.48088 887.37009 738.20957 894.18359 720.82812 C 907.01544 688.09328 891.32376 637.0918 860.5332 611.45117 C 847.21064 600.35687 845.66631 602.54147 849.98047 626.39453 C 853.39524 645.27496 850.08758 672.60688 843.41211 680.65625 C 841.58428 682.86029 836.97935 682.08794 833.17578 678.93359 C 824.64835 671.86168 796.61457 672.92362 795.57617 680.35742 C 795.159 683.34409 798.9554 689.21231 804.00781 693.40234 C 817.04543 704.21461 821.92433 743.56499 812.75977 764.00781 C 799.23363 794.17982 790.14657 801.42559 764.97852 802.13477 C 711.62905 803.63811 667.12911 784.29227 645.53125 757.70508 C 653.54151 754.76535 660.81877 747.94293 662.35547 738.92383 C 665.75454 718.97425 657.86544 704.50262 638.8457 695.63672 C 640.63948 692.56818 642.75522 689.52347 645.24805 686.51758 C 655.05693 674.68985 660.26359 670.58029 674.35156 669.29102 C 688.95895 673.515 705.05721 674.80542 722.04492 672.76758 C 764.60857 667.66166 798.58962 641.66577 832.31055 588.4082 C 845.98508 566.81117 852.59025 560.50662 862.6875 559.40234 C 890.67164 556.34186 919.16308 583.17584 926.35938 619.36914 C 928.40016 629.63274 931.61099 637.4573 933.48828 636.76172 C 935.36551 636.06618 942.72104 625.90974 949.8418 614.19336 C 956.96257 602.47697 964.51293 593.68462 966.61133 594.64844 C 968.70975 595.61222 975.32825 606.52745 981.32227 618.91602 C 987.31626 631.30464 994.15461 640.72911 996.51758 639.85352 C 998.88062 638.97804 1001.3306 629.14411 1001.9648 618 C 1002.6248 606.40212 998.38912 584.61724 992.06836 567.05469 C 982.49776 540.46157 978.47023 534.75618 961.83789 524.2168 C 939.09701 509.80668 913.28359 510.05629 880.22656 525.01367 C 857.82857 535.14814 857.26678 535.115 861.66602 523.72461 C 870.15611 501.74199 904.96111 452.47659 917.85156 444.19531 C 929.14971 436.93697 934.14789 437.58257 959.30469 449.57422 C 991.36956 464.85888 999.42268 464.67143 993.53516 448.78125 C 986.63692 430.16352 992.49617 428.95078 1021.4297 442.99609 C 1052.755 458.20217 1068.5847 459.81101 1093.6348 450.35938 C 1113.1915 442.98038 1139.8933 418.29284 1145.4316 402.46289 C 1149.6035 390.53873 1147.6275 389.42727 1112.7852 384.12305 C 1092.7248 381.06908 1086.6827 370.68582 1099.2598 360.88086 C 1110.07 352.45344 1135.4673 303.64173 1132.7793 296.46094 C 1130.2667 289.75565 1088.5273 288.25296 1063.1895 293.95898 C 1046.9641 297.61294 1042.9321 296.59258 1039.752 288.00977 C 1037.6396 282.30867 1038.3551 267.72085 1041.3398 255.59766 C 1048.1029 228.12744 1042.8034 226.19625 1001.8945 241.24219 C 955.96864 258.13334 941.77493 284.59123 943.91992 349.3125 C 944.23465 358.80856 943.79388 358.99126 931.91406 354.23633 C 917.33498 348.40094 918.13009 346.47443 919.5918 384.05664 C 920.51572 407.80993 918.74903 414.79756 911.07031 417.68359 C 894.26312 424.00058 863.53258 459.30555 848.38867 489.70117 C 840.36552 505.80443 834.03908 515.02872 834.33789 510.19141 C 835.34399 493.90272 814.51712 433.4332 802.87109 418.8418 C 780.9378 391.36167 728.923 379.45178 691.32227 393.29688 C 675.05305 399.2874 676.17189 401.71589 698.98633 409.90625 C 717.04465 416.38919 739.06208 432.9188 742.69531 442.72461 C 743.69014 445.40958 740.71751 449.0117 736.08398 450.72852 C 725.69581 454.57753 712.59893 479.38577 718.51758 484.00195 C 720.89552 485.85656 727.87637 485.50511 734.03125 483.22461 C 749.91376 477.33984 786.43297 492.78912 799.55469 510.94727 C 818.92135 537.74726 820.65149 549.23792 808.68164 571.38867 C 783.30887 618.34227 744.30455 647.20838 710.48047 652.61914 C 711.93969 644.2122 709.6713 634.49856 702.62891 628.6582 C 687.05159 615.73972 670.57274 615.33635 653.38477 627.375 C 651.62441 624.28749 650.0461 620.93101 648.68945 617.26953 C 643.35074 602.86076 642.39461 596.29858 648.32227 583.45312 C 659.28395 572.91478 668.4507 559.61733 675.17969 543.88672 C 692.03966 504.47255 686.5178 462.04877 657.25586 406.2168 C 645.38955 383.57581 643.22998 374.70286 647.32227 365.40625 C 658.66389 339.64103 696.14933 328.38162 731.0918 340.24609 C 741.00073 343.61052 749.38249 344.74309 749.71875 342.76953 C 750.05501 340.79603 744.93982 329.34722 738.35352 317.32227 C 731.76723 305.29731 727.92472 294.36274 729.80859 293.02734 C 731.69245 291.69195 744.45581 291.41857 758.18164 292.42188 C 771.90747 293.42526 783.48883 292.21471 783.91211 289.73047 C 784.33536 287.24633 777.04493 280.20921 767.71094 274.08789 C 757.99689 267.71736 737.01256 260.4909 718.64258 257.18359 C 690.82693 252.1754 683.87129 252.81094 666.42773 261.94531 C 642.57776 274.4344 629.88558 296.91457 626.31055 333.02148 C 623.88826 357.48596 623.58077 357.95621 615.91602 348.45117 C 601.12356 330.10721 575.86134 275.3314 575.13477 260.02734 C 574.49793 246.61367 577.55605 242.60895 600.51953 226.81836 C 629.78886 206.69171 633.65232 199.6236 616.94727 196.77734 C 597.37471 193.4425 599.25443 187.76123 625.88477 169.72656 C 654.71627 150.20114 664.02366 137.29671 668.36328 110.87695 C 671.75124 90.250818 663.72116 54.783571 652.78125 42.072266 C 644.54058 32.497222 642.59093 33.651633 620.57617 61.173828 C 607.90114 77.019756 595.88831 77.062196 593.68555 61.267578 C 591.79227 47.692067 562.21899 1.2918926 554.65625 0.029296875 C 554.54589 0.010912053 554.43208 0.00070762566 554.31445 0 z M 558.13867 108.49219 C 560.70815 108.6055 563.38375 109.68536 566.10352 111.79688 C 578.58214 121.48481 586.75689 151.21975 580.85742 165.47266 C 578.18262 171.93487 571.61486 181.98741 566.26562 187.80664 L 556.54102 198.38086 L 545.23828 180.36719 C 536.52125 166.47717 534.74672 157.53776 537.50391 141.35547 C 541.13988 120.01553 548.96197 108.08751 558.13867 108.49219 z M 1026.418 347.08984 C 1037.2779 347.28816 1043.0482 352.51364 1041.709 362.25977 C 1039.5583 377.91052 1017.8947 399.85567 1002.6016 401.87305 C 995.66766 402.78772 983.6771 402.12726 975.96289 400.4043 L 961.94141 397.26953 L 971.89258 378.47461 C 979.56321 363.9804 986.41764 357.97485 1001.8105 352.27148 C 1011.554 348.66135 1019.902 346.97086 1026.418 347.08984 z M 124.66016 396.41211 C 139.66407 396.66055 158.21063 403.33506 165.25586 412.51172 C 169.51491 418.05928 174.93774 428.77422 177.30273 436.31641 L 181.59766 450.02734 L 160.3457 450.80664 C 143.95808 451.4108 135.32904 448.477 122.69336 437.99805 C 101.3648 420.30997 96.818501 404.39232 111.39453 398.45117 C 115.05186 396.96046 119.65885 396.3293 124.66016 396.41211 z M 608.05469 607.19336 C 608.10553 607.32983 608.14975 607.46276 608.20117 607.59961 C 613.96644 622.94382 622.68657 635.95526 633.66016 646.28711 C 633.56696 646.3999 633.47409 646.50566 633.38086 646.61914 C 622.97514 659.28397 616.06636 673.34063 612.60547 688.00977 C 612.46102 687.98542 612.3228 687.95763 612.17773 687.93359 C 596.00708 685.25443 580.37941 686.29955 565.94531 690.63672 C 565.89419 690.49948 565.84858 690.36613 565.79688 690.22852 C 560.03149 674.88401 551.31178 661.87296 540.33789 651.54102 C 540.43112 651.42819 540.52392 651.3225 540.61719 651.20898 C 551.02291 638.54416 557.93364 624.4875 561.39453 609.81836 C 561.53842 609.84261 561.67581 609.87059 561.82031 609.89453 C 577.99102 612.5737 593.62055 611.53056 608.05469 607.19336 z M 1016.6387 846.95117 C 1031.1358 846.81389 1039.4587 850.00603 1051.3047 859.83008 C 1072.6333 877.51814 1077.1795 893.43578 1062.6035 899.37695 C 1047.9742 905.33977 1018.1378 897.55197 1008.7441 885.31641 C 1004.485 879.76885 999.06225 869.0539 996.69727 861.51172 L 992.40039 847.80273 L 1013.6543 847.02344 C 1014.6785 846.98568 1015.6722 846.96032 1016.6387 846.95117 z M 177.40039 895.55664 C 184.0594 895.43735 192.24949 896.13161 198.03516 897.42383 L 212.05664 900.55859 L 202.10547 919.35352 C 194.43488 933.84771 187.58233 939.85331 172.18945 945.55664 C 146.20685 955.18369 130.14623 951.16215 132.28906 935.56836 C 134.43975 919.91759 156.10336 897.97244 171.39648 895.95508 C 173.12994 895.72641 175.18072 895.5964 177.40039 895.55664 z M 617.45898 1099.4473 L 628.75977 1117.4609 C 637.47682 1131.351 639.25135 1140.2903 636.49414 1156.4727 C 631.84011 1183.7877 620.32774 1195.6838 607.89453 1186.0312 C 595.41591 1176.3433 587.24116 1146.6085 593.14062 1132.3555 C 595.81543 1125.8933 602.38319 1115.8407 607.73242 1110.0215 L 617.45898 1099.4473 z "
     id="path8781" />
</svg>
